<svg width="10" height="8" viewBox="0 0 10 8" fill="none" xmlns="http://www.w3.org/2000/svg">
<path d="M0.721191 2.11705C0.721191 1.49762 1.21674 0.984375 1.85387 0.984375H8.64992C9.26935 0.984375 9.78259 1.49762 9.78259 2.11705V6.64775C9.78259 7.28488 9.26935 7.78043 8.64992 7.78043H1.85387C1.21674 7.78043 0.721191 7.28488 0.721191 6.64775V2.11705ZM1.5707 2.11705V2.52411L4.61476 5.01953C4.98642 5.3204 5.49966 5.3204 5.87132 5.01953L8.93309 2.52411V2.11705C8.93309 1.97547 8.7915 1.83388 8.64992 1.83388H1.85387C1.69458 1.83388 1.5707 1.97547 1.5707 2.11705ZM1.5707 3.62138V6.64775C1.5707 6.80703 1.69458 6.93092 1.85387 6.93092H8.64992C8.7915 6.93092 8.93309 6.80703 8.93309 6.64775V3.62138L6.41996 5.67436C5.72974 6.2407 4.75635 6.2407 4.06612 5.67436L1.5707 3.62138Z" fill="black"/>
</svg>
